<mxfile host="app.diagrams.net" modified="2023-06-18T09:51:14.865Z" agent="Mozilla/5.0 (Windows NT 10.0; Win64; x64) AppleWebKit/537.36 (KHTML, like Gecko) Chrome/114.0.0.0 Safari/537.36" etag="cwfiPTy54vWj3YOr1qCD" version="21.4.0" type="device">
  <diagram name="Page-1" id="PJjq9KSbGslcqBFYk311">
    <mxGraphModel dx="1034" dy="470" grid="1" gridSize="10" guides="1" tooltips="1" connect="1" arrows="1" fold="1" page="1" pageScale="1" pageWidth="827" pageHeight="1169" math="0" shadow="0">
      <root>
        <mxCell id="0" />
        <mxCell id="1" parent="0" />
        <mxCell id="4KQzDHUh2YpJ9NjZ-o3A-5" value="" style="edgeStyle=orthogonalEdgeStyle;rounded=0;orthogonalLoop=1;jettySize=auto;html=1;" edge="1" parent="1" source="4KQzDHUh2YpJ9NjZ-o3A-1" target="4KQzDHUh2YpJ9NjZ-o3A-2">
          <mxGeometry relative="1" as="geometry" />
        </mxCell>
        <mxCell id="4KQzDHUh2YpJ9NjZ-o3A-10" value="" style="edgeStyle=orthogonalEdgeStyle;rounded=0;orthogonalLoop=1;jettySize=auto;html=1;" edge="1" parent="1" source="4KQzDHUh2YpJ9NjZ-o3A-1" target="4KQzDHUh2YpJ9NjZ-o3A-8">
          <mxGeometry relative="1" as="geometry" />
        </mxCell>
        <mxCell id="4KQzDHUh2YpJ9NjZ-o3A-1" value="u = a + b" style="ellipse;whiteSpace=wrap;html=1;" vertex="1" parent="1">
          <mxGeometry x="99" y="60" width="120" height="80" as="geometry" />
        </mxCell>
        <mxCell id="4KQzDHUh2YpJ9NjZ-o3A-6" value="" style="edgeStyle=orthogonalEdgeStyle;rounded=0;orthogonalLoop=1;jettySize=auto;html=1;" edge="1" parent="1" source="4KQzDHUh2YpJ9NjZ-o3A-2" target="4KQzDHUh2YpJ9NjZ-o3A-3">
          <mxGeometry relative="1" as="geometry" />
        </mxCell>
        <mxCell id="4KQzDHUh2YpJ9NjZ-o3A-11" value="" style="edgeStyle=orthogonalEdgeStyle;rounded=0;orthogonalLoop=1;jettySize=auto;html=1;" edge="1" parent="1" source="4KQzDHUh2YpJ9NjZ-o3A-2" target="4KQzDHUh2YpJ9NjZ-o3A-8">
          <mxGeometry relative="1" as="geometry" />
        </mxCell>
        <mxCell id="4KQzDHUh2YpJ9NjZ-o3A-2" value="v =a - b" style="ellipse;whiteSpace=wrap;html=1;" vertex="1" parent="1">
          <mxGeometry x="100" y="160" width="120" height="80" as="geometry" />
        </mxCell>
        <mxCell id="4KQzDHUh2YpJ9NjZ-o3A-7" value="" style="edgeStyle=orthogonalEdgeStyle;rounded=0;orthogonalLoop=1;jettySize=auto;html=1;" edge="1" parent="1" source="4KQzDHUh2YpJ9NjZ-o3A-3" target="4KQzDHUh2YpJ9NjZ-o3A-4">
          <mxGeometry relative="1" as="geometry" />
        </mxCell>
        <mxCell id="4KQzDHUh2YpJ9NjZ-o3A-12" value="" style="edgeStyle=orthogonalEdgeStyle;rounded=0;orthogonalLoop=1;jettySize=auto;html=1;" edge="1" parent="1" source="4KQzDHUh2YpJ9NjZ-o3A-3" target="4KQzDHUh2YpJ9NjZ-o3A-9">
          <mxGeometry relative="1" as="geometry" />
        </mxCell>
        <mxCell id="4KQzDHUh2YpJ9NjZ-o3A-3" value="w = b + c" style="ellipse;whiteSpace=wrap;html=1;" vertex="1" parent="1">
          <mxGeometry x="100" y="260" width="120" height="80" as="geometry" />
        </mxCell>
        <mxCell id="4KQzDHUh2YpJ9NjZ-o3A-13" value="" style="edgeStyle=orthogonalEdgeStyle;rounded=0;orthogonalLoop=1;jettySize=auto;html=1;" edge="1" parent="1" source="4KQzDHUh2YpJ9NjZ-o3A-4" target="4KQzDHUh2YpJ9NjZ-o3A-9">
          <mxGeometry relative="1" as="geometry" />
        </mxCell>
        <mxCell id="4KQzDHUh2YpJ9NjZ-o3A-4" value="x =b - c" style="ellipse;whiteSpace=wrap;html=1;" vertex="1" parent="1">
          <mxGeometry x="100" y="360" width="120" height="80" as="geometry" />
        </mxCell>
        <mxCell id="4KQzDHUh2YpJ9NjZ-o3A-16" value="" style="edgeStyle=orthogonalEdgeStyle;rounded=0;orthogonalLoop=1;jettySize=auto;html=1;entryX=0;entryY=0.5;entryDx=0;entryDy=0;" edge="1" parent="1" source="4KQzDHUh2YpJ9NjZ-o3A-8" target="4KQzDHUh2YpJ9NjZ-o3A-14">
          <mxGeometry relative="1" as="geometry">
            <mxPoint x="490" y="150" as="targetPoint" />
            <Array as="points">
              <mxPoint x="440" y="150" />
              <mxPoint x="440" y="240" />
            </Array>
          </mxGeometry>
        </mxCell>
        <mxCell id="4KQzDHUh2YpJ9NjZ-o3A-8" value="r = u * v" style="ellipse;whiteSpace=wrap;html=1;" vertex="1" parent="1">
          <mxGeometry x="290" y="110" width="120" height="80" as="geometry" />
        </mxCell>
        <mxCell id="4KQzDHUh2YpJ9NjZ-o3A-19" value="" style="edgeStyle=orthogonalEdgeStyle;rounded=0;orthogonalLoop=1;jettySize=auto;html=1;entryX=0;entryY=0.5;entryDx=0;entryDy=0;" edge="1" parent="1" source="4KQzDHUh2YpJ9NjZ-o3A-9" target="4KQzDHUh2YpJ9NjZ-o3A-14">
          <mxGeometry relative="1" as="geometry">
            <mxPoint x="490" y="350" as="targetPoint" />
            <Array as="points">
              <mxPoint x="440" y="350" />
              <mxPoint x="440" y="240" />
            </Array>
          </mxGeometry>
        </mxCell>
        <mxCell id="4KQzDHUh2YpJ9NjZ-o3A-9" value="s = w * x" style="ellipse;whiteSpace=wrap;html=1;" vertex="1" parent="1">
          <mxGeometry x="290" y="310" width="120" height="80" as="geometry" />
        </mxCell>
        <mxCell id="4KQzDHUh2YpJ9NjZ-o3A-14" value="J = r + s" style="ellipse;whiteSpace=wrap;html=1;" vertex="1" parent="1">
          <mxGeometry x="480" y="200" width="120" height="80" as="geometry" />
        </mxCell>
      </root>
    </mxGraphModel>
  </diagram>
</mxfile>
